<svg width="110" height="135" viewBox="0 0 110 135" fill="none" xmlns="http://www.w3.org/2000/svg">
<path d="M96.898 62.449H96.8277L79.2967 59.9373C79.035 59.8982 78.8553 59.656 78.8865 59.3982C78.9256 59.1365 79.1678 58.9568 79.4256 58.9881L96.0546 61.367L75.9336 20.777C75.8125 20.5387 75.9141 20.2574 76.1523 20.1364C76.3906 20.0153 76.6719 20.1168 76.793 20.3551L97.324 61.7651C97.4021 61.9253 97.3826 62.1167 97.2849 62.2534C97.1951 62.3823 97.0466 62.4526 96.8943 62.4526L96.898 62.449Z" fill="black"/>
<path d="M35.012 82.039C34.9104 82.039 34.8128 82.0077 34.7308 81.9491C34.5901 81.8476 34.512 81.6679 34.5393 81.4999L40.8479 35.5779C40.8675 35.4178 40.969 35.2771 41.1175 35.2068C41.2659 35.1365 41.4378 35.1482 41.5784 35.2381L79.6294 59.0661C79.7779 59.1559 79.8599 59.3278 79.8482 59.4958C79.8364 59.6677 79.7388 59.8239 79.5864 59.8942L35.2274 81.9842C35.1571 82.0155 35.0868 82.035 35.0165 82.035L35.012 82.039ZM41.6917 36.441L35.6019 80.73L78.3829 59.421L41.6839 36.441H41.6917Z" fill="black"/>
<path d="M35.012 82.039C34.8636 82.039 34.7229 81.9687 34.6214 81.8398L12.7194 52.0508C12.6412 51.9414 12.61 51.8008 12.6412 51.6719C12.6725 51.543 12.7506 51.4219 12.8717 51.3516L41.0907 35.2306C41.2509 35.1407 41.4423 35.1525 41.5907 35.2501C41.7392 35.3517 41.8212 35.5314 41.8017 35.7111L35.4931 81.6331C35.4618 81.8245 35.3212 81.9846 35.1337 82.0315C35.0946 82.0432 35.0556 82.0432 35.0126 82.0432L35.012 82.039ZM13.801 51.91L34.692 80.32L40.7115 36.531L13.801 51.91Z" fill="black"/>
<path d="M79.371 59.941C79.2811 59.941 79.1913 59.9215 79.121 59.8707L41.07 36.0427C40.9215 35.9529 40.8317 35.781 40.8512 35.6013C40.8629 35.4216 40.9723 35.2732 41.1403 35.2029L76.1913 20.1329C76.3319 20.0743 76.4921 20.0821 76.6327 20.1641C76.7616 20.2422 76.8514 20.3829 76.8632 20.5352L79.8515 59.4332C79.8632 59.6129 79.7811 59.7848 79.621 59.8824C79.5429 59.9332 79.4608 59.9527 79.371 59.9527L79.371 59.941ZM42.34 35.718L78.809 58.558L75.9379 21.269L42.3359 35.718H42.34Z" fill="black"/>
<path d="M74.789 99.91C74.7187 99.91 74.6601 99.8983 74.5898 99.871L34.8008 81.9919C34.6289 81.9138 34.5195 81.7537 34.5195 81.5623C34.5195 81.3708 34.6211 81.2107 34.7813 81.1208L79.1403 59.0188C79.2887 58.9407 79.4801 58.9603 79.6285 59.0579C79.7692 59.1595 79.8473 59.3274 79.8278 59.5071L75.2574 99.4761C75.2379 99.6246 75.1481 99.7652 75.0192 99.8355C74.9489 99.8746 74.8707 99.8941 74.7809 99.8941L74.789 99.91ZM36.129 81.539L74.399 98.738L78.7974 60.289L36.1254 81.539H36.129Z" fill="black"/>
<path d="M13.1016 52.238C12.9727 52.238 12.8399 52.1872 12.75 52.0896C12.6016 51.9294 12.5781 51.6794 12.711 51.4997L34.09 20.2887C34.1915 20.1481 34.3517 20.0583 34.5314 20.0778C34.7032 20.0895 34.8517 20.1989 34.922 20.359L41.7501 35.429C41.8516 35.6595 41.7696 35.9173 41.5509 36.0384L13.3319 52.1594C13.2616 52.1985 13.1717 52.218 13.0936 52.218L13.1016 52.238ZM34.3986 21.539L14.6686 50.32L40.6996 35.449L34.3988 21.551L34.3986 21.539Z" fill="black"/>
<path d="M74.789 99.91H74.7109L29.1089 91.8319C28.9604 91.8007 28.8198 91.703 28.7573 91.5624C28.687 91.4218 28.6987 91.2538 28.7769 91.121L34.5855 81.3202C34.7065 81.1092 34.9644 81.0311 35.1948 81.1288L74.9838 99.0078C75.2026 99.1093 75.3119 99.3593 75.2455 99.5859C75.187 99.7851 74.9956 99.9257 74.7846 99.9257L74.789 99.91ZM29.961 91.0116L71.082 98.3007L35.203 82.1797L29.9647 91.0195L29.961 91.0116Z" fill="black"/>
<path d="M41.32 36.121C41.1403 36.121 40.9607 36.0195 40.8786 35.8398L34.0505 20.7698C33.9802 20.6213 33.9997 20.4495 34.0818 20.3088C34.1716 20.1682 34.3201 20.0901 34.4802 20.0901H76.3592C76.5897 20.0901 76.7811 20.2502 76.828 20.469C76.8787 20.6877 76.7576 20.9182 76.5467 21.0081L41.4957 36.0781C41.4371 36.1093 41.3668 36.1171 41.3043 36.1171L41.32 36.121ZM35.2302 21.039L41.5583 35.008L74.0463 21.039H35.2302Z" fill="black"/>
<path d="M29.199 91.84H29.16C28.9803 91.8283 28.8201 91.7111 28.7498 91.5392L12.6598 51.9412C12.5699 51.7225 12.6598 51.4607 12.8707 51.3397C13.0817 51.2186 13.3512 51.2811 13.4918 51.4686L35.4018 81.2696C35.5112 81.418 35.5229 81.6289 35.4331 81.8008L29.6245 91.6016C29.5346 91.7501 29.3862 91.8321 29.2143 91.8321L29.199 91.84ZM14.988 55.141L29.277 90.289L34.4372 81.5898L14.988 55.141Z" fill="black"/>
<path d="M74.789 99.91C74.7382 99.91 74.6874 99.91 74.6406 99.8787C74.4296 99.8084 74.289 99.5975 74.3203 99.367L78.8906 59.398C78.9023 59.2691 78.9687 59.148 79.0702 59.0777C79.1718 59.0074 79.3007 58.9683 79.4296 58.9879L96.9606 61.4996C97.1208 61.5191 97.2497 61.6207 97.32 61.7691C97.3903 61.9097 97.3786 62.0777 97.3005 62.2183L75.1915 99.6793C75.1016 99.8278 74.9415 99.9176 74.7813 99.9176L74.789 99.91ZM79.789 60.012L75.5273 97.262L96.1293 62.352L79.789 60.012Z" fill="black"/>
<path d="M46.301 69.012C46.1799 69.012 46.0705 68.9729 45.9807 68.8909C45.8322 68.7503 45.7815 68.5315 45.8713 68.3401C45.8908 68.2893 48.0315 63.5901 47.801 60.6018C47.6604 58.762 46.9924 57.3518 46.0198 56.8127C45.3792 56.4612 44.6409 56.5041 43.801 56.9416C41.5002 58.1525 42.6018 60.84 42.6408 60.9533C42.7424 61.1916 42.6291 61.4729 42.3908 61.5822C42.1525 61.6916 41.8713 61.5705 41.7619 61.3322C41.2307 60.0939 40.883 57.3908 43.3517 56.1017C44.7736 55.3517 45.8322 55.6213 46.4806 55.9807C47.7306 56.6721 48.5822 58.3791 48.7501 60.5315C48.922 62.762 47.9415 65.7307 47.2892 67.4221L54.4376 63.2619C54.6681 63.1212 54.9571 63.2033 55.086 63.4337C55.2149 63.6642 55.1446 63.9533 54.9142 64.0822L46.5353 68.9611C46.4649 69.0001 46.3751 69.0314 46.297 69.0314L46.301 69.012Z" fill="black"/>
<path d="M58.078 61.891C55.8866 61.891 53.5663 60.4418 52.6092 58.9105C51.5389 57.2113 51.1795 54.8988 51.6873 53.0199C52.0076 51.8285 52.6365 50.9691 53.4959 50.5082C55.7147 49.348 59.4959 50.5082 61.367 54.0394C62.9061 56.9613 62.4451 59.9378 60.2576 61.3011C59.5975 61.7113 58.8474 61.8909 58.0857 61.8909L58.078 61.891ZM53.9413 51.36C53.1522 51.7702 52.7811 52.6295 52.6132 53.2702C52.1835 54.8796 52.5038 56.9421 53.4218 58.3991C54.621 60.3093 57.8437 61.6686 59.7499 60.4889C61.8007 59.2194 61.621 56.5592 60.5194 54.4889C58.9608 51.5397 55.7577 50.4108 53.9413 51.36Z" fill="black"/>
<path d="M59.02 41.379C58.9302 41.379 58.8403 41.3477 58.7505 41.3009C58.5317 41.1524 58.4692 40.8595 58.6216 40.6407L64.7622 31.461L62.1333 32.1094C61.8715 32.168 61.6137 32.0196 61.5551 31.7579C61.4965 31.4962 61.645 31.2384 61.9067 31.1798L65.7348 30.2305C65.9262 30.1798 66.1254 30.2618 66.2465 30.422C66.3559 30.5821 66.3676 30.8009 66.2465 30.961L59.4262 41.172C59.3364 41.3126 59.1879 41.383 59.0278 41.383L59.02 41.379Z" fill="black"/>
<path d="M66.859 45.781C66.7809 45.781 66.6871 45.7615 66.609 45.7107C66.3785 45.5701 66.3082 45.281 66.4488 45.0506L69.9176 39.3397L66.5895 37.0193C66.4294 36.91 66.3591 36.7186 66.3903 36.5311C66.4294 36.3397 66.57 36.2029 66.7614 36.16L72.7926 34.8983C72.9723 34.8592 73.1715 34.9373 73.2809 35.0897C73.3903 35.2381 73.402 35.4491 73.3004 35.6092L71.1988 39.0584L73.7105 40.8084C73.9293 40.9569 73.98 41.2576 73.8316 41.4803C73.6832 41.699 73.3824 41.7498 73.1597 41.6014L70.6988 39.8905L67.2691 45.5389C67.1793 45.6873 67.0191 45.7694 66.859 45.7694L66.859 45.781ZM68.0504 36.8787L70.4215 38.5271L71.9098 36.0662L68.0504 36.8748V36.8787Z" fill="black"/>
<path d="M54.199 27.73C54.199 27.73 54.1091 27.73 54.0583 27.7105L46.7185 25.4722L43.8474 27.273C43.7381 27.3433 43.5974 27.3628 43.4685 27.3316C43.3396 27.2925 43.2303 27.2105 43.1678 27.0933L41.4061 23.7144C41.3162 23.5425 41.3357 23.3355 41.4647 23.1831C41.5857 23.0347 41.785 22.9722 41.9764 23.0347L46.578 24.4331L49.9178 22.3315C50.1365 22.1909 50.4373 22.2612 50.5779 22.4799C50.7186 22.6987 50.6482 22.9995 50.4295 23.1401L47.7889 24.8003L54.3397 26.8003C54.5897 26.8784 54.7303 27.1401 54.66 27.4018C54.6014 27.6128 54.41 27.7417 54.1991 27.7417L54.199 27.73ZM42.789 24.2691L43.7772 26.1793L45.5077 25.0895L42.7889 24.2614L42.789 24.2691Z" fill="black"/>
<path d="M26.012 41.34C25.9534 41.34 25.9026 41.34 25.8401 41.3087C25.5901 41.2189 25.469 40.9376 25.5588 40.6993L27.9885 34.129L27.8167 34.3595C27.6565 34.5705 27.3674 34.6212 27.1448 34.4689C26.9338 34.3205 26.8831 34.0197 27.0354 33.797L29.2542 30.7384C29.3948 30.547 29.6526 30.4884 29.8636 30.5978C30.0745 30.7072 30.1722 30.9572 30.0823 31.1876L26.4417 41.0392C26.3714 41.2306 26.1917 41.3478 25.9925 41.3478L26.012 41.34Z" fill="black"/>
<path d="M31.25 38.48C30.9219 38.48 30.6211 38.3706 30.3711 38.1519C29.9414 37.7808 29.7109 37.1402 29.7109 36.3511C29.7109 35.2495 30.3203 34.4292 31.0195 33.73C30.6914 33.4214 30.4414 32.9605 30.4414 32.1988C30.4414 30.9683 31.75 29.3199 32.6016 29.1676C33.0235 29.0973 33.3711 29.1676 33.6328 29.3864C33.9844 29.6871 34.1445 30.2067 34.1445 31.0973C34.1445 32.0855 33.4258 32.8356 32.6562 33.527C33.2656 33.7965 33.9453 34.2379 33.996 35.4176C34.0546 36.8668 32.9257 38.2262 31.4648 38.4488C31.3945 38.4605 31.3164 38.4683 31.2461 38.4683L31.25 38.48ZM31.8711 34.2378C31.1992 34.8667 30.6719 35.5073 30.6719 36.3472C30.6719 36.8472 30.793 37.2457 31 37.4253C31.0899 37.5035 31.1992 37.5347 31.3281 37.5152C32.2774 37.3745 33.0781 36.4136 33.039 35.4761C33.0078 34.7143 32.6406 34.5659 32.0273 34.3159C31.9766 34.2963 31.9258 34.2768 31.8789 34.2573L31.8711 34.2378ZM32.9102 30.1089C32.9102 30.1089 32.8204 30.1089 32.7696 30.1206C32.4493 30.1792 31.3985 31.3706 31.3985 32.2104C31.3985 32.6597 31.5196 32.9097 31.7266 33.0815C31.7383 33.0815 31.7461 33.062 31.7578 33.0503C32.4883 32.4018 33.1875 31.7808 33.1875 31.1011C33.1875 30.312 33.0469 30.1519 33.0157 30.1323C32.9961 30.1128 32.9571 30.1128 32.9063 30.1128L32.9102 30.1089Z" fill="black"/>
<path d="M32.141 63.121C31.9691 63.121 31.8207 63.0312 31.7309 62.8905C31.6918 62.8319 27.9301 56.6014 26.2192 54.1288C25.5707 53.1991 24.8403 52.7499 24.2075 52.8983C23.5668 53.0585 23.0591 53.828 22.9263 54.8671C22.6645 56.8554 24.6958 57.1952 24.7857 57.2187C25.0474 57.2578 25.2271 57.5078 25.1841 57.7695C25.145 58.0312 24.895 58.2109 24.6333 58.168C23.5825 57.9961 21.6724 57.0782 21.9731 54.7578C22.1645 53.2969 22.9341 52.2383 23.9731 51.9883C25.0122 51.7383 26.1137 52.3281 26.9926 53.5977C28.2621 55.4375 30.641 59.3086 31.8324 61.2461L33.1722 50.9651C33.2035 50.7033 33.4418 50.5158 33.7113 50.5549C33.973 50.5861 34.1605 50.8244 34.1214 51.094L32.6097 62.723C32.5785 62.9222 32.4301 63.0823 32.2308 63.1331C32.1996 63.1331 32.1605 63.1448 32.1293 63.1448L32.141 63.121Z" fill="black"/>
<path d="M66.199 90.711C64.5506 90.711 63.3474 89.6798 62.6873 88.461C61.9178 87.0391 62.5584 85.4922 63.4256 83.9493C61.5858 83.9102 59.7459 83.629 58.7068 82.1485C57.8865 80.9766 57.5662 79.7188 57.8162 78.5782C58.0466 77.5196 58.7458 76.629 59.8553 75.9766C61.1639 75.2149 62.4451 74.9649 63.5545 75.2774C64.6131 75.5664 65.4842 76.3165 66.1561 77.5274C67.1443 79.2969 66.1756 81.168 65.0975 82.9962C67.0858 82.9766 68.9491 83.0352 69.867 84.3673C70.406 85.1485 70.8084 86.4962 70.488 87.7579C70.238 88.7696 69.5584 89.5782 68.5271 90.0977C67.6756 90.5274 66.8982 90.7188 66.199 90.7188L66.199 90.711ZM64.5193 83.9493C63.6287 85.461 62.9099 86.8712 63.5193 88.0001C63.9802 88.8399 65.3279 90.6407 68.0974 89.2384C68.8865 88.8399 69.3786 88.2579 69.5662 87.5196C69.8045 86.5508 69.4881 85.4884 69.0857 84.9102C68.3943 83.9219 66.6443 83.9414 64.7849 83.9492H64.5232L64.5193 83.9493ZM62.5779 76.1095C61.7263 76.1095 60.9177 76.4689 60.3279 76.8087C59.449 77.3204 58.9177 77.9884 58.7498 78.7892C58.5584 79.6603 58.8201 80.6603 59.4881 81.5978C60.367 82.8478 62.1483 82.9962 63.9764 82.9962C63.9764 82.9767 63.9959 82.965 64.0076 82.9454C65.0974 81.1368 66.117 79.4142 65.3162 77.9845C64.7772 77.0158 64.0974 76.4142 63.2967 76.1954C63.0584 76.1251 62.8163 76.1056 62.578 76.1056L62.5779 76.1095Z" fill="black"/>
<path d="M89.359 55.398C88.4606 55.398 87.2379 54.3199 85.859 53.0074C85.5973 52.7574 85.3903 52.5582 85.2496 52.4488C85.0504 52.2769 85.0192 51.98 85.1793 51.7769C85.3512 51.5777 85.6481 51.5464 85.8512 51.7066C85.9996 51.8355 86.2301 52.0464 86.5113 52.316C88.0816 53.8043 89.0426 54.5152 89.363 54.4449C89.6247 53.523 87.5113 48.8941 85.7848 45.7535C85.7966 46.3629 85.7458 47.0426 85.5739 47.7535C85.0739 49.7535 84.3044 49.9527 83.4137 49.984H83.2926C82.7809 50.0035 82.2809 49.7535 81.8317 49.234C81.0036 48.2848 80.3512 46.4137 80.7419 44.3824C81.0622 42.7418 81.5232 41.8707 82.2614 41.5621C83.0309 41.234 83.8395 41.6636 84.3825 42.0113C84.5544 42.1207 84.8239 42.441 85.1442 42.9097C85.2028 42.9605 85.2536 43.0191 85.2849 43.1011C85.2849 43.1129 85.2849 43.1207 85.3044 43.1402C87.2028 45.9683 90.7536 53.0699 90.2927 54.6522C90.1443 55.1522 89.8044 55.3124 89.613 55.3631C89.5349 55.3827 89.4411 55.3944 89.3513 55.3944L89.359 55.398ZM82.8512 42.398C82.7731 42.398 82.7028 42.4097 82.6403 42.437C82.3707 42.5581 81.9801 43.0152 81.6911 44.5581C81.3629 46.269 81.9098 47.8472 82.57 48.5972C82.8082 48.8785 83.07 49.0386 83.2614 49.0269H83.3903C83.9606 48.9957 84.3004 48.9879 84.6715 47.5152C85.2027 45.3941 84.4527 43.5347 84.4215 43.4566C84.4215 43.4449 84.4098 43.4254 84.402 43.4176C84.1832 43.109 84.0035 42.898 83.8707 42.816C83.4488 42.5465 83.109 42.4058 82.859 42.4058L82.8512 42.398Z" fill="black"/>
<path d="M81.211 70.719C81.0313 70.719 80.8712 70.6174 80.7813 70.4495C80.6602 70.2112 80.7618 69.9299 81.0001 69.8088L88.711 65.9885L87.8828 65.8401C87.6211 65.7893 87.4531 65.5393 87.4922 65.2815C87.543 65.0198 87.793 64.8518 88.0508 64.8909L90.3008 65.301C90.5 65.3401 90.6602 65.5003 90.6914 65.6995C90.7227 65.8987 90.6133 66.0979 90.4297 66.1995L81.418 70.6604C81.3477 70.6916 81.2774 70.7112 81.2071 70.7112L81.211 70.719Z" fill="black"/>
<path d="M83.859 78.77C83.7691 78.77 83.6793 78.77 83.5895 78.7504C82.359 78.602 81.3004 77.5199 81.1207 76.2309C80.8824 74.5512 81.6714 72.1723 83.3824 71.2621C83.4331 71.2309 83.5933 71.1215 83.8042 70.9809C87.6128 68.4106 89.4058 67.6606 90.1948 68.309C90.3159 68.4105 90.4761 68.598 90.4956 68.9301C90.5737 69.891 89.4175 71.641 88.9448 72.1684C88.7651 72.3676 88.4643 72.3793 88.2651 72.2074C88.0659 72.0277 88.0464 71.727 88.2261 71.5278C88.855 70.8168 89.6245 69.3169 89.5347 68.977C89.4253 68.9652 88.6558 68.9262 85.105 71.2582C85.5542 71.4769 85.8862 71.8792 86.0932 72.4495C86.5151 73.5901 86.7729 74.9612 85.855 77.2581C85.4761 78.2191 84.7339 78.7581 83.8433 78.7581L83.859 78.77ZM83.8082 72.1216C82.4293 72.8716 81.898 74.9497 82.0699 76.1021C82.2105 77.063 83.0113 77.7232 83.7105 77.8013C84.2886 77.8716 84.7222 77.563 84.98 76.9107C85.8198 74.8091 85.5386 73.6801 85.2105 72.7817C85.0816 72.4302 84.9019 72.2036 84.6597 72.1021C84.3003 71.9419 83.8902 72.0903 83.8199 72.1138L83.8082 72.1216Z" fill="black"/>
<path d="M39.441 90.672C38.3199 90.672 37.2496 90.422 36.941 89.6017C36.7926 89.1799 36.8629 88.672 37.1715 88.1134C37.6598 87.2033 38.7926 86.1525 39.9996 85.8829C41.0191 85.6525 42.9488 85.7618 43.8004 87.0313C44.1402 87.5431 44.2223 88.1211 44.0309 88.6797C43.7691 89.4102 43.0816 89.9805 42.0816 90.3008C41.5231 90.4727 40.4606 90.6797 39.4411 90.6797L39.441 90.672ZM40.9293 86.7384C40.6598 86.7384 40.4098 86.7697 40.1988 86.8087C39.3199 87.008 38.3902 87.8595 38.0074 88.5587C37.816 88.9103 37.7965 89.1486 37.8356 89.258C38.0543 89.8595 40.3239 89.8283 41.7965 89.3673C42.4879 89.1486 42.9762 88.7775 43.1246 88.3479C43.2144 88.0783 43.1754 87.8088 43.0035 87.5471C42.5933 86.9455 41.6949 86.7268 40.9332 86.7268L40.9293 86.7384Z" fill="black"/>
<path d="M29.859 86.238H29.8082C29.57 86.2185 29.3864 86.0192 29.3785 85.777L29.1168 78.4958C29.1168 78.2341 29.316 78.0076 29.5778 78.0076C29.8278 78.0076 30.066 78.2068 30.066 78.4685L30.2262 83.0271C30.3043 82.9959 30.3981 82.9959 30.4879 83.0154C30.7496 83.074 30.9098 83.3357 30.8473 83.5857L30.316 85.8669C30.2653 86.0856 30.0661 86.238 29.8551 86.238H29.859Z" fill="black"/>
<path d="M27.59 82.262C26.2384 82.262 25.6798 80.3636 25.6408 79.1526C25.59 77.7034 26.3205 75.7737 26.8127 74.8714L23.4729 70.6409C23.3127 70.4299 23.344 70.1292 23.551 69.969C23.762 69.8088 24.0627 69.8401 24.2229 70.0471L27.7541 74.5159C27.883 74.6878 27.8947 74.9261 27.7541 75.094C27.5627 75.4143 26.5353 77.4924 26.5822 79.1135C26.6135 79.9846 27.0236 81.2932 27.5822 81.2932C27.7111 81.1643 27.801 80.2815 27.7228 79.4846C27.6916 79.2229 27.883 78.9846 28.1525 78.9651C28.4142 78.9339 28.6525 79.1253 28.6838 79.387C28.7345 79.8284 28.8322 81.3089 28.2736 81.9378C28.0939 82.137 27.8634 82.2464 27.6017 82.2464H27.59L27.59 82.262Z" fill="black"/>
<path d="M39.621 91.988C39.3593 91.988 39.1522 91.777 39.1405 91.5192C39.1405 91.2575 39.3514 91.0388 39.6093 91.0309L49.4804 90.8513C49.7304 90.8317 49.9608 91.0622 49.9686 91.32C49.9686 91.5817 49.7577 91.8005 49.4999 91.8083L39.6288 91.988H39.621Z" fill="black"/>
<path d="M42.852 92.469H42.7817L39.5512 91.9807C39.2895 91.9417 39.1098 91.6995 39.1528 91.4417C39.1918 91.1799 39.434 91.0002 39.6918 91.0432L42.9223 91.5315C43.1841 91.5706 43.3637 91.8127 43.3208 92.0706C43.2817 92.3088 43.0825 92.4807 42.852 92.4807L42.852 92.469Z" fill="black"/>
</svg>
